<svg width="28" height="28" viewBox="0 0 28 28" fill="none" xmlns="http://www.w3.org/2000/svg">
<path d="M8.27273 0C3.71158 0 0 3.71158 0 8.27273V19.7273C0 24.2884 3.71158 28 8.27273 28H19.7273C24.2884 28 28 24.2884 28 19.7273V8.27273C28 3.71158 24.2884 0 19.7273 0H8.27273ZM8.27273 1.27273H19.7273C23.6005 1.27273 26.7273 4.39951 26.7273 8.27273V19.7273C26.7273 23.6005 23.6005 26.7273 19.7273 26.7273H8.27273C4.39951 26.7273 1.27273 23.6005 1.27273 19.7273V8.27273C1.27273 4.39951 4.39951 1.27273 8.27273 1.27273ZM21.6364 5.09091C21.2988 5.09091 20.9751 5.225 20.7364 5.46368C20.4977 5.70237 20.3636 6.02609 20.3636 6.36364C20.3636 6.70118 20.4977 7.02491 20.7364 7.26359C20.9751 7.50227 21.2988 7.63636 21.6364 7.63636C21.9739 7.63636 22.2976 7.50227 22.5363 7.26359C22.775 7.02491 22.9091 6.70118 22.9091 6.36364C22.9091 6.02609 22.775 5.70237 22.5363 5.46368C22.2976 5.225 21.9739 5.09091 21.6364 5.09091ZM14 7C10.1415 7 7 10.1415 7 14C7 17.8585 10.1415 21 14 21C17.8585 21 21 17.8585 21 14C21 10.1415 17.8585 7 14 7ZM14 8.27273C17.1706 8.27273 19.7273 10.8294 19.7273 14C19.7273 17.1706 17.1706 19.7273 14 19.7273C10.8294 19.7273 8.27273 17.1706 8.27273 14C8.27273 10.8294 10.8294 8.27273 14 8.27273Z" fill="black"/>
</svg>
