<svg width="28" height="28" viewBox="0 0 28 28" fill="none" xmlns="http://www.w3.org/2000/svg">
<path d="M14 0C6.27537 0 0 6.27537 0 14C0 16.4829 0.68094 18.8001 1.81658 20.8229L0.0225883 27.2272C-0.00607231 27.3297 -0.00736729 27.4379 0.0188325 27.5411C0.0450323 27.6442 0.0978115 27.7387 0.171908 27.8151C0.246004 27.8914 0.338828 27.9471 0.441125 27.9764C0.543422 28.0057 0.651618 28.0077 0.754925 27.9822L7.43274 26.3273C9.39499 27.3748 11.6216 28 14 28C21.7246 28 28 21.7246 28 14C28 6.27537 21.7246 0 14 0ZM14 1.21739C21.0667 1.21739 26.7826 6.93333 26.7826 14C26.7826 21.0667 21.0667 26.7826 14 26.7826C11.7344 26.7826 9.61259 26.192 7.768 25.1598C7.63309 25.0844 7.47456 25.0632 7.32456 25.1004L1.47656 26.5496L3.04467 20.9548C3.06711 20.8758 3.0733 20.793 3.06288 20.7114C3.05246 20.6299 3.02564 20.5513 2.98404 20.4805C1.86303 18.5796 1.21739 16.3679 1.21739 14C1.21739 6.93333 6.93333 1.21739 14 1.21739ZM8.91287 6.69565C8.52268 6.69565 7.96542 6.84082 7.50764 7.33407C7.23268 7.63033 6.08696 8.74666 6.08696 10.7092C6.08696 12.7554 7.50606 14.521 7.67765 14.7478H7.67884V14.749C7.66256 14.7276 7.89663 15.0666 8.20907 15.473C8.52151 15.8794 8.95842 16.4133 9.5073 16.9912C10.6051 18.147 12.1485 19.4828 14.0642 20.2998C14.9464 20.6754 15.6424 20.9023 16.1697 21.0678C17.1469 21.3746 18.0369 21.328 18.7055 21.2294C19.2059 21.1557 19.7564 20.9155 20.301 20.5708C20.8455 20.2262 21.3793 19.7977 21.6146 19.1466C21.7833 18.6798 21.869 18.2485 21.9 17.8935C21.9155 17.716 21.9174 17.5594 21.9059 17.4144C21.8944 17.2694 21.9067 17.1583 21.7716 16.9365C21.4882 16.4712 21.1672 16.459 20.8324 16.2933C20.6463 16.2012 20.1166 15.9425 19.5853 15.6894C19.0545 15.4365 18.595 15.2125 18.312 15.1116C18.1332 15.0473 17.9149 14.9546 17.5999 14.9903C17.2849 15.026 16.9738 15.2533 16.7926 15.5217C16.6209 15.7762 15.9298 16.592 15.7191 16.8319C15.7163 16.8302 15.7346 16.8386 15.6513 16.7974C15.3907 16.6684 15.072 16.5587 14.6004 16.31C14.1287 16.0612 13.5388 15.6938 12.8932 15.1247V15.1235C11.9323 14.2775 11.2592 13.2155 11.0469 12.8587C11.0612 12.8417 11.0452 12.8623 11.0754 12.8325L11.0766 12.8314C11.2936 12.6176 11.4859 12.3623 11.6484 12.1751C11.8789 11.9097 11.9805 11.6757 12.0907 11.457C12.3102 11.0213 12.188 10.5418 12.061 10.2896V10.2884C12.0697 10.3058 11.9923 10.1349 11.9088 9.93767C11.8251 9.7399 11.7184 9.4835 11.6044 9.21009C11.3765 8.66326 11.1221 8.04995 10.9708 7.69073V7.68954C10.7925 7.26642 10.5514 6.9616 10.2361 6.81454C9.92078 6.66748 9.64221 6.70929 9.63094 6.70873H9.62976C9.40475 6.69835 9.15785 6.69565 8.91287 6.69565ZM8.91287 7.91304C9.14755 7.91304 9.37891 7.9159 9.57269 7.92493C9.77203 7.93487 9.75964 7.93568 9.7213 7.9178C9.68235 7.89963 9.73519 7.89374 9.84851 8.1627C9.99667 8.51444 10.2524 9.12998 10.481 9.6785C10.5953 9.95276 10.7023 10.2101 10.7877 10.412C10.8731 10.6139 10.9194 10.7266 10.9732 10.8341V10.8353L10.9744 10.8364C11.027 10.9404 11.0224 10.8738 11.0041 10.9102C10.8756 11.1651 10.8582 11.2277 10.7283 11.3774C10.5304 11.6053 10.3286 11.8595 10.2218 11.9647C10.1284 12.0565 9.95973 12.1995 9.85445 12.4794C9.749 12.7598 9.79822 13.1445 9.96739 13.4317C10.1926 13.8141 10.9349 15.0222 12.0883 16.0377C12.8147 16.6781 13.4915 17.1019 14.0321 17.3871C14.5727 17.6722 15.0131 17.8388 15.1116 17.8876C15.3456 18.0034 15.6013 18.0933 15.8986 18.0576C16.1959 18.0219 16.4523 17.8415 16.6155 17.6569L16.6167 17.6557C16.8339 17.4095 17.4792 16.6726 17.7889 16.2184C17.802 16.223 17.7977 16.2194 17.9006 16.2565V16.2576H17.9018C17.9488 16.2744 18.5374 16.5378 19.0622 16.7879C19.5869 17.0379 20.1196 17.2978 20.2926 17.3835C20.5424 17.5071 20.6604 17.5876 20.6909 17.588C20.693 17.6415 20.695 17.6996 20.6873 17.7877C20.666 18.0322 20.6006 18.3706 20.4698 18.7328C20.4057 18.9102 20.0717 19.276 19.6506 19.5425C19.2295 19.809 18.717 19.9972 18.5272 20.0251C17.9565 20.1092 17.2788 20.1399 16.5346 19.9062C16.0186 19.7443 15.3752 19.5346 14.5421 19.1799C12.8525 18.4593 11.4164 17.2331 10.3906 16.153C9.87771 15.613 9.46678 15.1103 9.17442 14.73C8.88261 14.3504 8.75519 14.1528 8.64895 14.0131L8.64776 14.0119C8.45917 13.7625 7.30435 12.1562 7.30435 10.7092C7.30435 9.17791 8.01561 8.5774 8.40048 8.1627C8.60253 7.945 8.82342 7.91304 8.91287 7.91304Z" fill="black"/>
</svg>
